<svg xmlns="http://www.w3.org/2000/svg" xmlns:xlink="http://www.w3.org/1999/xlink" id="Layer_1" x="0px" y="0px" viewBox="0 0 500 500" style="enable-background:new 0 0 500 500;" xml:space="preserve"> <style type="text/css"> .st0{fill:url(#SVGID_1_);} </style> <linearGradient id="SVGID_1_" gradientUnits="userSpaceOnUse" x1="5.000007e-02" y1="250" x2="499.95" y2="250"> <stop offset="0" style="stop-color:#FFDC90"></stop> <stop offset="3.195160e-02" style="stop-color:#E8C67E"></stop> <stop offset="0.1089" style="stop-color:#DDB570"></stop> <stop offset="0.1177" style="stop-color:#D9B06C"></stop> <stop offset="0.19" style="stop-color:#BE8D4B"></stop> <stop offset="0.2289" style="stop-color:#B4803F"></stop> <stop offset="0.3007" style="stop-color:#CA9D59"></stop> <stop offset="0.3876" style="stop-color:#E8C67E"></stop> <stop offset="0.4433" style="stop-color:#F2CF86"></stop> <stop offset="0.542" style="stop-color:#FFDC90"></stop> <stop offset="0.6883" style="stop-color:#E8C67E"></stop> <stop offset="0.6981" style="stop-color:#E3BF78"></stop> <stop offset="0.7546" style="stop-color:#C99D59"></stop> <stop offset="0.8012" style="stop-color:#BA8846"></stop> <stop offset="0.8318" style="stop-color:#B4803F"></stop> <stop offset="0.8895" style="stop-color:#CA9D59"></stop> <stop offset="0.9594" style="stop-color:#E8C67E"></stop> <stop offset="0.9741" style="stop-color:#F2CE83"></stop> <stop offset="1" style="stop-color:#FFDA8B"></stop> </linearGradient> <path class="st0" d="M498.7,147c-1.2-26.6-5.5-44.8-11.6-60.7c-6.4-16.8-16.1-31.8-28.9-44.3c-12.5-12.7-27.6-22.6-44.2-28.8 C398,7,379.8,2.7,353.2,1.6C326.5,0.3,318,0,250.1,0s-76.4,0.3-103.1,1.5c-26.6,1.2-44.8,5.5-60.7,11.6C69.6,19.4,54.5,29.2,42,42 C29.3,54.5,19.5,69.6,13.2,86.2c-6.2,15.9-10.5,34.1-11.6,60.6C0.3,173.7,0.1,182.2,0.1,250s0.3,76.4,1.5,103 c1.2,26.6,5.5,44.8,11.6,60.7c6.3,16.8,16.2,31.8,28.9,44.3c12.5,12.7,27.6,22.6,44.2,28.8c15.9,6.1,34.1,10.5,60.7,11.6 c26.6,1.2,35.1,1.5,103,1.5s76.4-0.3,103-1.5c26.6-1.2,44.8-5.5,60.6-11.6c33.6-13,60.2-39.6,73.2-73.2 c6.1-15.9,10.5-34.1,11.6-60.7c1.2-26.7,1.5-35.2,1.5-103.1S499.9,173.7,498.7,147z M453.7,351.1c-1.1,24.4-5.2,37.6-8.6,46.4 c-8.4,21.8-25.7,39.1-47.5,47.5c-8.8,3.4-22.1,7.5-46.4,8.6c-26.4,1.2-34.3,1.5-101,1.5s-74.7-0.3-101-1.5 c-24.4-1.1-37.6-5.2-46.4-8.6c-10.8-4-20.7-10.4-28.7-18.7c-8.3-8.1-14.7-17.9-18.7-28.7c-3.4-8.8-7.5-22.1-8.6-46.4 c-1.2-26.4-1.5-34.3-1.5-101s0.3-74.7,1.5-101c1.1-24.4,5.2-37.6,8.6-46.4c4-10.8,10.4-20.7,18.8-28.7c8.1-8.3,17.9-14.7,28.7-18.7 c8.8-3.4,22.1-7.5,46.4-8.6c26.4-1.2,34.3-1.5,101-1.5c66.8,0,74.7,0.3,101,1.5c24.4,1.1,37.6,5.2,46.4,8.6 c10.8,4,20.7,10.3,28.7,18.7c8.3,8.1,14.6,17.9,18.7,28.7c3.4,8.8,7.5,22.1,8.6,46.4c1.2,26.4,1.5,34.3,1.5,101 S454.8,324.8,453.7,351.1z M250.1,121.6c-70.9,0-128.4,57.5-128.4,128.4s57.5,128.4,128.4,128.4S378.5,321,378.5,250 S321,121.6,250.1,121.6z M250.1,333.4c-46,0-83.3-37.3-83.3-83.3s37.3-83.3,83.3-83.3c46,0,83.3,37.3,83.3,83.3 S296.1,333.4,250.1,333.4z M413.6,116.5c0,16.6-13.4,30-30,30s-30-13.4-30-30s13.4-30,30-30C400.2,86.5,413.6,100,413.6,116.5z"></path> </svg>